# xmcd
#
# Track frame offsets:
#	150
#	65485
#	130715
#	196072
#	218802
#	223925
#	246157
#	262132
#
# Disc length: 3823 seconds
#
# Revision: 1
# Processed by: cddbd v1.5.1PL0 Copyright (c) Steve Scherf et al.
# Submitted via: CDex 1.50Beta5
#
DISCID=7e0eed08
DTITLE=サウンドトラック - HOLLYWOOD CHRISTMAS Spectacular
DYEAR=1900
DGENRE=
TTITLE0=キャノピークリスマスミュージック
TTITLE1=ハリウッドクリスマスミュージック
TTITLE2=ヨーククリスマスミュージック
TTITLE3=タイムマジック・序曲
TTITLE4=タイムマジック・プロローグ
TTITLE5=タイムマジック・アメリカーナ・メドレー
TTITLE6=タイムマジック・ビートルジュース
TTITLE7=タイムマジック・フィナーレ
EXTD=
EXTT0=
EXTT1=
EXTT2=
EXTT3=
EXTT4=
EXTT5=
EXTT6=
EXTT7=
PLAYORDER=
